<?xml version="1.0" standalone="no"?>
<!DOCTYPE svg PUBLIC "-//W3C//DTD SVG 20010904//EN"
 "http://www.w3.org/TR/2001/REC-SVG-20010904/DTD/svg10.dtd">
<svg version="1.0" xmlns="http://www.w3.org/2000/svg"
 width="256.000000pt" height="256.000000pt" viewBox="0 0 256.000000 256.000000"
 preserveAspectRatio="xMidYMid meet">
<metadata>
Created by potrace 1.14, written by Peter Selinger 2001-2017
</metadata>
<g transform="translate(0.000000,256.000000) scale(0.100000,-0.100000)"
fill="#000000" stroke="none">
<path d="M280 2080 c-138 -6 -160 -14 -185 -66 -13 -27 -15 -100 -15 -454 0
-452 2 -467 51 -498 34 -22 51 -23 325 -22 l261 0 1 -39 2 -40 -52 -3 c-58 -3
-81 -25 -62 -55 10 -16 37 -18 293 -21 l281 -2 12 25 c17 38 -4 57 -61 53
l-46 -2 -3 42 -3 42 269 0 c149 0 281 4 294 9 27 10 62 47 72 76 7 18 9 827 3
867 -5 29 -58 77 -91 83 -40 8 -1184 11 -1346 5z m718 -1079 l-1 -39 -66 -4
c-36 -2 -81 -2 -98 0 -31 3 -33 6 -33 43 l0 39 100 0 100 0 -2 -39z"/>
<path d="M1915 2070 c-29 -12 -65 -53 -70 -81 -10 -47 -6 -1325 3 -1350 6 -13
22 -35 37 -49 l27 -25 277 -2 c296 -3 311 -1 346 46 19 25 20 47 20 713 l0
688 -33 32 -32 33 -278 2 c-152 1 -286 -2 -297 -7z"/>
<path d="M795 802 c-2 -2 -144 -3 -317 -3 -198 1 -326 -3 -345 -9 -25 -9 -40
-29 -83 -114 -59 -118 -61 -154 -11 -181 34 -17 7 -17 941 -16 847 1 803 -3
816 65 5 28 -3 50 -48 134 -32 61 -62 105 -75 111 -13 6 -116 10 -244 11 -121
0 -225 2 -230 6 -5 3 -9 2 -9 -3 0 -4 -88 -6 -196 -3 -108 3 -197 4 -199 2z"/>
</g>
</svg>
